<svg version="1" xmlns="http://www.w3.org/2000/svg" width="800" height="600" viewBox="0 0 800 600"><linearGradient id="a" gradientUnits="userSpaceOnUse" x1="551.444" y1="308.469" x2="505.324" y2="308.469" gradientTransform="translate(-129.776 -249.696)"><stop offset="0" stop-color="#ffef00"/><stop offset=".569" stop-color="#e7d31b"/><stop offset=".952" stop-color="#e5bf21"/></linearGradient><path fill="url(#a)" d="M369.779 49.241h57.902v19.062h-57.902z"/><linearGradient id="b" gradientUnits="userSpaceOnUse" x1="459.629" y1="450.515" x2="353.541" y2="489.127" gradientTransform="matrix(1 0 0 -1 4 595)"><stop offset="0" stop-color="#ffef00"/><stop offset=".569" stop-color="#e7d31b"/><stop offset=".952" stop-color="#e5bf21"/></linearGradient><path fill="url(#b)" d="M463.496 88.532h-.047v-.801c-5.428-17.397-20.143-19.333-35.96-19.42h-58.406c-15.103.255-28.154 3.417-32.945 18.282v3.413h-.121v63.724h.121v2.008c4.791 14.864 17.842 18.026 32.945 18.282h47.265c.102-.159.189-.33.288-.49h10.853c15.817-.083 30.532-1.91 35.96-18.33v-.487h.047V88.532z"/><linearGradient id="c" gradientUnits="userSpaceOnUse" x1="565.188" y1="444.412" x2="491.05" y2="417.428" gradientTransform="translate(-128.348 -251.123)"><stop offset="0" stop-color="#ffef00"/><stop offset=".569" stop-color="#e7d31b"/><stop offset=".952" stop-color="#e5bf21"/></linearGradient><path fill="url(#c)" d="M360.769 172.005h78.003v15.583h-78.003z"/><g fill="#3B3939"><circle cx="377.994" cy="110.664" r="8.469"/><circle cx="422.005" cy="110.664" r="8.469"/><path d="M417.84 137.303c-2.899 1.355-5.777 2.587-8.774 3.477-2.999.89-6.112 1.441-9.537 1.442-2.519 0-5.208-.299-8.154-1.006-2.944-.708-6.143-1.824-9.657-3.467a2.489 2.489 0 1 0-2.11 4.51c3.78 1.767 7.297 3.003 10.604 3.798 3.306.794 6.402 1.144 9.316 1.144 3.966.001 7.59-.648 10.954-1.647 3.363-1 6.473-2.342 9.465-3.738a2.49 2.49 0 0 0-2.107-4.513z"/></g><linearGradient id="d" gradientUnits="userSpaceOnUse" x1="396.5" y1="40.717" x2="396.5" y2="246.194" gradientTransform="matrix(1 0 0 -1 4 595)"><stop offset="0" stop-color="#446db5"/><stop offset=".606" stop-color="#446db5"/><stop offset=".764" stop-color="#628dad"/><stop offset=".903" stop-color="#6795b6"/></linearGradient><path fill="url(#d)" d="M466.715 348.807H300.792v205.476h95.605V433.765c1.227.377 2.532.586 3.893.586 1.518 0 2.966-.267 4.312-.729v120.661h95.605V348.807h-33.492z"/><path fill="#426DB5" d="M546.394 327.725l-9.538-55.614-29.272-57.839s-13.729-21.197-36.509-16.802l27.888 136.552 47.431-6.297z"/><path fill="#ED1F24" d="M502.057 348.807L471.058 197.39c0-6.164-5.539-11.237-12.668-11.917l-.016-.083-.082.071a17.206 17.206 0 0 0-1.533-.071H342.983c-.247 0-.488.021-.732.031l-.035-.03-.006.032c-7.534.339-13.524 5.56-13.524 11.968l-30.029 151.417 203.4-.001z"/><path fill="#32558E" d="M546.368 327.428c-.601-4.091-11.732-6.051-24.863-4.376-13.131 1.676-23.287 6.349-22.688 10.438.601 4.092 11.731 6.05 24.862 4.376 13.132-1.676 23.29-6.349 22.689-10.438z"/><linearGradient id="e" gradientUnits="userSpaceOnUse" x1="540.991" y1="246.739" x2="500.133" y2="259.301" gradientTransform="matrix(1 0 0 -1 4 595)"><stop offset="0" stop-color="#ffef00"/><stop offset="1" stop-color="#e7d31b"/></linearGradient><path fill="url(#e)" d="M540.196 326.81s-18.124-6.167-34.812 4.82l2.422 25.179 36.193-5.318-3.803-24.681z"/><linearGradient id="f" gradientUnits="userSpaceOnUse" x1="557.917" y1="211.481" x2="496.11" y2="230.483" gradientTransform="matrix(1 0 0 -1 4 595)"><stop offset="0" stop-color="#ffef00"/><stop offset="1" stop-color="#e7d31b"/></linearGradient><path fill="url(#f)" d="M526.479 342.548c-17.69 2.412-30.077 18.707-27.664 36.396 1.334 9.802 6.934 17.967 14.668 22.896.426.049 4.062.868 5.953-.259 5.945-3.544-.979-12.219-3.712-19.549a16.86 16.86 0 0 1-2.217-6.363c-1.264-9.259 5.219-17.79 14.48-19.052.133-.02.267-.03.4-.043.134-.021.267-.047.397-.065 9.261-1.262 17.788 5.222 19.051 14.479a16.86 16.86 0 0 1-.433 6.728c-.67 7.791-5.021 18.005 1.651 19.829 2.126.58 5.411-1.182 5.809-1.347 6.134-6.816 9.343-16.185 8.007-25.984-2.407-17.689-18.7-30.076-36.39-27.666z"/><path fill="#426DB5" d="M301.039 334.5l27.888-136.552c-22.779-4.396-36.509 16.802-36.509 16.802l-29.272 57.839-9.539 55.614 47.432 6.297z"/><path fill="#32558E" d="M278.495 323.53c-13.131-1.675-24.264.285-24.863 4.376-.601 4.089 9.558 8.763 22.688 10.438 13.131 1.674 24.263-.284 24.863-4.376.599-4.09-9.557-8.762-22.688-10.438z"/><linearGradient id="g" gradientUnits="userSpaceOnUse" x1="291.249" y1="247.65" x2="253.23" y2="259.339" gradientTransform="matrix(1 0 0 -1 4 595)"><stop offset="0" stop-color="#ffef00"/><stop offset="1" stop-color="#e7d31b"/></linearGradient><path fill="url(#g)" d="M259.804 327.288l-3.803 24.68 36.193 5.319 2.422-25.179c-16.688-10.987-34.812-4.82-34.812-4.82z"/><linearGradient id="h" gradientUnits="userSpaceOnUse" x1="296.7" y1="212.523" x2="234.896" y2="231.524" gradientTransform="matrix(1 0 0 -1 4 595)"><stop offset="0" stop-color="#ffef00"/><stop offset="1" stop-color="#e7d31b"/></linearGradient><path fill="url(#h)" d="M273.521 343.026c17.691 2.411 30.078 18.707 27.665 36.396-1.334 9.802-6.934 17.967-14.668 22.896-.426.049-4.062.867-5.954-.26-5.945-3.544.98-12.219 3.712-19.549a16.836 16.836 0 0 0 2.217-6.363c1.264-9.259-5.219-17.789-14.48-19.052-.133-.019-.267-.029-.401-.043-.133-.021-.266-.047-.397-.064-9.261-1.263-17.788 5.221-19.051 14.479a16.864 16.864 0 0 0 .433 6.729c.67 7.791 5.021 18.005-1.652 19.829-2.126.579-5.411-1.183-5.808-1.348-6.134-6.815-9.343-16.184-8.007-25.983 2.408-17.689 18.701-30.077 36.391-27.667z"/><path fill="#32558E" d="M302.362 286.472l-29.803-9.021a1.5 1.5 0 1 0-.869 2.871l29.803 9.021a1.5 1.5 0 1 0 .869-2.871m224.396-11.744l-27.452 14.695a1.498 1.498 0 0 0-.613 2.029 1.498 1.498 0 0 0 2.028.615l27.452-14.695a1.5 1.5 0 1 0-1.415-2.644M300.792 524.172h95.605v6.591h-95.605zm103.811 0h95.605v6.591h-95.605z"/><linearGradient id="i" gradientUnits="userSpaceOnUse" x1="344.509" y1="165.902" x2="344.509" y2="133.384" gradientTransform="matrix(1 0 0 -1 4 595)"><stop offset="0" stop-opacity=".57"/><stop offset="1" stop-opacity="0"/></linearGradient><path fill="url(#i)" d="M300.62 429.098h95.777v32.518H300.62z"/><linearGradient id="j" gradientUnits="userSpaceOnUse" x1="448.318" y1="165.902" x2="448.318" y2="133.384" gradientTransform="matrix(1 0 0 -1 4 595)"><stop offset="0" stop-opacity=".57"/><stop offset="1" stop-opacity="0"/></linearGradient><path fill="url(#j)" d="M404.431 429.098h95.777v32.518h-95.777z"/><path fill="#32558E" d="M491.899 348.807H300.62v26.271h89.268v61.269c0 5.89 4.835 10.662 10.797 10.662 5.965 0 10.801-4.772 10.801-10.662v-61.269h89.194v-26.271h-8.781z"/><linearGradient id="k" gradientUnits="userSpaceOnUse" x1="387.423" y1="187.461" x2="387.423" y2="154.945" gradientTransform="matrix(-1 0 0 1 839.828 336.71)"><stop offset="0" stop-color="#fff" stop-opacity=".57"/><stop offset=".09" stop-color="#e0e1e2" stop-opacity=".519"/><stop offset=".282" stop-color="#a9abad" stop-opacity=".409"/><stop offset=".465" stop-color="#7f8083" stop-opacity=".305"/><stop offset=".633" stop-color="#5d5e60" stop-opacity=".209"/><stop offset=".783" stop-color="#414042" stop-opacity=".123"/><stop offset=".911" stop-color="#19191a" stop-opacity=".051"/><stop offset="1" stop-opacity="0"/></linearGradient><path opacity=".45" fill="url(#k)" d="M404.603 491.655h95.605v32.517h-95.605z"/><linearGradient id="l" gradientUnits="userSpaceOnUse" x1="491.232" y1="187.461" x2="491.232" y2="154.945" gradientTransform="matrix(-1 0 0 1 839.828 336.71)"><stop offset="0" stop-color="#fff" stop-opacity=".57"/><stop offset=".09" stop-color="#e0e1e2" stop-opacity=".519"/><stop offset=".282" stop-color="#a9abad" stop-opacity=".409"/><stop offset=".465" stop-color="#7f8083" stop-opacity=".305"/><stop offset=".633" stop-color="#5d5e60" stop-opacity=".209"/><stop offset=".783" stop-color="#414042" stop-opacity=".123"/><stop offset=".911" stop-color="#19191a" stop-opacity=".051"/><stop offset="1" stop-opacity="0"/></linearGradient><path opacity=".45" fill="url(#l)" d="M300.792 491.655h95.605v32.517h-95.605z"/><path d="M341.171 626.695l.768 2.95c.168.647.324 1.247.432 1.847h.036c.132-.587.324-1.211.516-1.835l.947-2.962h.888l.899 2.902c.216.695.384 1.308.516 1.895h.036c.096-.587.252-1.199.444-1.883l.828-2.914h1.043l-1.871 5.805h-.959l-.888-2.771a19.337 19.337 0 0 1-.516-1.907h-.024a17.108 17.108 0 0 1-.528 1.919l-.936 2.759h-.959l-1.751-5.805h1.079zm8.975 0l.768 2.95c.168.647.324 1.247.433 1.847h.035c.132-.587.324-1.211.516-1.835l.948-2.962h.887l.9 2.902c.216.695.384 1.308.516 1.895h.036c.096-.587.251-1.199.443-1.883l.827-2.914h1.044l-1.871 5.805h-.96l-.887-2.771a19.62 19.62 0 0 1-.517-1.907h-.023a17.325 17.325 0 0 1-.527 1.919l-.936 2.759h-.96l-1.751-5.805h1.079zm8.976 0l.768 2.95c.168.647.324 1.247.432 1.847h.036c.132-.587.324-1.211.516-1.835l.948-2.962h.887l.9 2.902c.216.695.384 1.308.516 1.895h.035c.097-.587.252-1.199.444-1.883l.827-2.914h1.044l-1.871 5.805h-.96l-.887-2.771a19.337 19.337 0 0 1-.516-1.907h-.024a17.325 17.325 0 0 1-.527 1.919l-.936 2.759h-.96l-1.751-5.805h1.079zm7.693 5.181c0-.443.3-.755.719-.755.42 0 .708.312.708.755 0 .433-.275.756-.72.756-.419 0-.707-.323-.707-.756zm5.951.624l-.084-.731h-.036c-.324.456-.947.863-1.775.863-1.175 0-1.774-.827-1.774-1.667 0-1.403 1.247-2.171 3.49-2.159v-.119c0-.48-.132-1.344-1.319-1.344-.54 0-1.104.168-1.512.432l-.239-.695c.479-.312 1.175-.516 1.906-.516 1.775 0 2.207 1.211 2.207 2.374v2.171c0 .504.024.996.096 1.392h-.96zm-.157-2.962c-1.151-.024-2.458.18-2.458 1.307 0 .684.455 1.008.995 1.008.756 0 1.235-.479 1.403-.972.036-.107.06-.228.06-.336v-1.007zm2.727-5.554h1.055v8.516h-1.055v-8.516zm2.831 0h1.055v8.516h-1.055v-8.516zm6.046 8.516l-.084-.731h-.036c-.324.456-.947.863-1.775.863-1.175 0-1.774-.827-1.774-1.667 0-1.403 1.247-2.171 3.49-2.159v-.119c0-.48-.132-1.344-1.319-1.344-.54 0-1.104.168-1.512.432l-.239-.695c.479-.312 1.175-.516 1.906-.516 1.775 0 2.207 1.211 2.207 2.374v2.171c0 .504.024.996.096 1.392h-.96zm-.156-2.962c-1.151-.024-2.458.18-2.458 1.307 0 .684.455 1.008.995 1.008.756 0 1.235-.479 1.403-.972.036-.107.06-.228.06-.336v-1.007zm2.726-1.271c0-.6-.013-1.092-.049-1.571h.936l.061.959h.023c.288-.552.96-1.091 1.919-1.091.804 0 2.051.479 2.051 2.471v3.466h-1.055v-3.346c0-.936-.348-1.716-1.344-1.716-.695 0-1.235.492-1.415 1.08a1.516 1.516 0 0 0-.072.491v3.49h-1.055v-4.233zm6.66 0c0-.6-.013-1.092-.049-1.571h.924l.048.936h.036c.324-.552.863-1.067 1.823-1.067.791 0 1.391.479 1.643 1.163h.024c.18-.324.407-.575.647-.756.348-.264.731-.407 1.283-.407.768 0 1.907.504 1.907 2.519v3.418h-1.031v-3.286c0-1.115-.408-1.787-1.26-1.787-.6 0-1.067.443-1.247.96a1.732 1.732 0 0 0-.084.527v3.586h-1.031v-3.479c0-.923-.408-1.595-1.212-1.595-.659 0-1.139.527-1.307 1.056a1.43 1.43 0 0 0-.084.516v3.502h-1.031v-4.235zm14.146 4.017c-.276.144-.888.336-1.668.336-1.751 0-2.89-1.188-2.89-2.963 0-1.787 1.223-3.082 3.118-3.082.623 0 1.175.156 1.463.3l-.24.815c-.251-.144-.647-.275-1.223-.275-1.331 0-2.051.983-2.051 2.194 0 1.344.863 2.171 2.015 2.171.6 0 .995-.156 1.295-.288l.181.792zm4.452.216l-.084-.731h-.036c-.324.456-.947.863-1.775.863-1.175 0-1.774-.827-1.774-1.667 0-1.403 1.247-2.171 3.49-2.159v-.119c0-.48-.132-1.344-1.319-1.344-.54 0-1.104.168-1.512.432l-.239-.695c.479-.312 1.175-.516 1.906-.516 1.775 0 2.207 1.211 2.207 2.374v2.171c0 .504.024.996.096 1.392h-.96zm-.156-2.962c-1.151-.024-2.458.18-2.458 1.307 0 .684.455 1.008.995 1.008.756 0 1.235-.479 1.403-.972.036-.107.06-.228.06-.336v-1.007zm3.037-2.843l1.14 3.262c.191.528.348 1.008.468 1.487h.036c.132-.479.3-.959.491-1.487l1.128-3.262h1.103l-2.278 5.805h-1.008l-2.206-5.805h1.126zm10.498 2.855c0 2.146-1.487 3.082-2.891 3.082-1.571 0-2.782-1.151-2.782-2.986 0-1.942 1.271-3.082 2.878-3.082 1.667-.001 2.795 1.21 2.795 2.986zm-4.606.059c0 1.271.731 2.231 1.763 2.231 1.008 0 1.763-.948 1.763-2.255 0-.983-.491-2.231-1.738-2.231-1.248 0-1.788 1.152-1.788 2.255zm6.241-2.914l1.271 3.43c.132.384.276.84.372 1.188h.024c.107-.348.228-.791.371-1.211l1.151-3.406h1.116l-1.584 4.138c-.755 1.991-1.271 3.011-1.99 3.634-.516.456-1.031.636-1.296.684l-.264-.888c.264-.084.611-.252.924-.516.288-.228.647-.636.888-1.175.048-.108.084-.192.084-.252a.907.907 0 0 0-.072-.276l-2.146-5.349h1.151zm4.549 5.181c0-.443.3-.755.72-.755.419 0 .707.312.707.755 0 .433-.275.756-.72.756-.42 0-.707-.323-.707-.756zm6.873.408c-.276.144-.888.336-1.668.336-1.751 0-2.89-1.188-2.89-2.963 0-1.787 1.223-3.082 3.118-3.082.623 0 1.175.156 1.463.3l-.239.815c-.252-.144-.648-.275-1.224-.275-1.331 0-2.051.983-2.051 2.194 0 1.344.863 2.171 2.015 2.171.6 0 .995-.156 1.295-.288l.181.792zm6.419-2.734c0 2.146-1.487 3.082-2.891 3.082-1.571 0-2.782-1.151-2.782-2.986 0-1.942 1.271-3.082 2.878-3.082 1.667-.001 2.795 1.21 2.795 2.986zm-4.606.059c0 1.271.731 2.231 1.763 2.231 1.008 0 1.763-.948 1.763-2.255 0-.983-.491-2.231-1.738-2.231-1.249 0-1.788 1.152-1.788 2.255zm5.401 2.267c0-.443.3-.755.72-.755.419 0 .707.312.707.755 0 .433-.275.756-.72.756-.419 0-.707-.323-.707-.756zm7.592-.959c0 .6.013 1.127.049 1.583h-.936l-.061-.947h-.023a2.184 2.184 0 0 1-1.919 1.079c-.912 0-2.003-.504-2.003-2.543v-3.394h1.055v3.214c0 1.104.336 1.848 1.296 1.848.707 0 1.199-.492 1.391-.96.061-.156.097-.348.097-.54v-3.562h1.055v4.222zm2.799-1.56h.024c.144-.203.348-.455.516-.659l1.703-2.003h1.271l-2.242 2.387 2.555 3.418h-1.283l-2.003-2.782-.54.6v2.183h-1.043v-8.516h1.043v5.372z"/></svg>